<?xml version="1.0" standalone="no"?>
<!DOCTYPE svg PUBLIC "-//W3C//DTD SVG 20010904//EN"
 "http://www.w3.org/TR/2001/REC-SVG-20010904/DTD/svg10.dtd">
<svg version="1.0" xmlns="http://www.w3.org/2000/svg"
 width="500.000000pt" height="500.000000pt" viewBox="0 0 500.000000 500.000000"
 preserveAspectRatio="xMidYMid meet">

<g transform="translate(0.000000,500.000000) scale(0.100000,-0.100000)"
fill="#000000" stroke="none">
<path d="M2476 4290 c-11 -11 -24 -20 -30 -20 -6 0 -4 5 4 10 11 8 3 9 -28 6
-25 -3 -40 -1 -37 5 4 5 -1 9 -9 9 -9 0 -16 -3 -16 -7 0 -5 -28 -9 -63 -10
-34 -1 -84 -6 -111 -11 -27 -6 -56 -7 -64 -4 -9 3 -13 1 -9 -4 3 -5 -2 -10
-11 -11 -30 -2 -177 -37 -182 -43 -3 -4 -27 -12 -55 -19 -69 -17 -194 -72
-248 -109 -24 -17 -47 -28 -51 -25 -3 4 -6 -1 -6 -10 0 -10 -4 -17 -10 -17 -5
0 -10 -7 -10 -16 0 -12 -6 -15 -21 -11 -15 4 -19 2 -15 -9 3 -9 1 -12 -5 -9
-5 4 -16 1 -24 -5 -8 -7 -15 -9 -15 -5 0 5 -9 -3 -21 -16 -11 -13 -28 -24 -37
-24 -9 0 -16 -6 -15 -12 2 -7 -4 -13 -12 -13 -9 0 -19 -8 -22 -17 -4 -10 -13
-24 -21 -32 -12 -12 -15 -12 -23 0 -5 8 -9 9 -9 3 0 -5 6 -16 13 -23 10 -11 8
-13 -10 -8 -27 6 -30 -7 -5 -23 15 -10 15 -11 -3 -5 -35 11 -40 10 -37 -7 2
-13 -2 -16 -14 -11 -14 5 -16 3 -11 -12 6 -14 5 -16 -6 -7 -19 16 -28 3 -15
-22 9 -17 8 -19 -3 -8 -18 17 -30 15 -22 -3 3 -9 2 -15 -3 -14 -22 4 -34 -2
-34 -16 0 -8 -6 -15 -13 -15 -18 0 -49 -40 -43 -55 3 -10 0 -12 -11 -8 -12 5
-14 1 -9 -18 3 -13 3 -18 0 -11 -10 21 -26 13 -19 -9 5 -15 4 -19 -4 -15 -6 4
-11 1 -11 -8 0 -10 -6 -13 -17 -9 -11 4 -14 3 -9 -5 4 -7 2 -12 -5 -12 -7 0
-9 -10 -7 -24 4 -17 1 -23 -8 -19 -8 3 -20 -9 -31 -31 -9 -20 -20 -36 -24 -36
-4 0 -10 -14 -14 -30 -4 -17 -11 -28 -16 -24 -5 3 -9 0 -9 -5 0 -22 -2 -26
-16 -42 -8 -9 -11 -19 -7 -22 3 -4 1 -7 -6 -7 -7 0 -11 -9 -9 -22 2 -13 -4
-30 -13 -38 -21 -19 -72 -167 -63 -182 4 -6 3 -8 -3 -5 -17 11 -73 -218 -88
-361 -11 -101 -8 -359 5 -452 14 -105 59 -279 98 -385 47 -128 84 -205 95
-198 6 4 7 1 3 -6 -5 -7 -1 -20 7 -29 9 -9 15 -21 15 -25 0 -5 37 -66 83 -135
63 -97 114 -157 209 -253 69 -69 140 -136 158 -150 19 -13 46 -33 60 -45 87
-68 214 -145 233 -140 3 0 13 -7 23 -16 9 -10 32 -20 51 -24 19 -3 32 -10 30
-15 -6 -8 27 -20 69 -24 36 -4 37 -5 32 -14 -3 -4 6 -6 21 -3 17 3 24 1 19 -6
-6 -11 48 -34 58 -25 3 4 6 1 6 -6 0 -8 8 -11 20 -8 11 3 20 2 20 -3 0 -9 100
-43 107 -36 3 3 13 1 22 -4 10 -5 35 -11 57 -14 21 -3 73 -10 115 -16 107 -14
434 -2 448 18 3 4 17 8 31 9 65 5 102 12 115 23 7 6 19 10 27 9 14 -3 179 48
215 66 13 7 20 15 17 18 -3 3 3 3 14 0 25 -6 208 86 334 169 192 125 347 277
472 461 38 56 71 104 75 107 3 3 19 30 35 60 162 311 222 511 233 769 6 159
-16 406 -42 468 -8 18 -12 33 -9 33 2 0 -2 14 -11 30 -9 17 -13 30 -10 30 6 0
-26 82 -34 90 -3 3 -7 16 -9 30 -1 13 -6 27 -10 30 -4 3 -7 11 -8 18 -3 38 -5
43 -14 37 -6 -3 -7 1 -4 9 3 9 2 16 -3 16 -10 0 -33 58 -33 83 0 9 -4 17 -9
17 -6 0 -8 9 -6 19 2 13 -1 18 -9 15 -9 -3 -13 3 -12 18 3 38 -13 52 -38 31
l-21 -18 19 23 c20 23 15 45 -6 24 -7 -7 -16 -12 -21 -12 -5 0 1 8 14 19 22
17 22 19 6 35 -9 10 -17 24 -17 32 0 8 -5 14 -12 14 -6 0 -9 3 -5 6 3 4 1 12
-6 19 -7 7 -19 23 -27 36 -8 13 -27 36 -41 51 -15 15 -24 29 -21 32 3 3 -3 8
-12 12 -9 3 -14 10 -11 14 7 11 -46 61 -57 54 -4 -3 -8 2 -8 12 0 12 -6 15
-21 11 -17 -5 -18 -3 -8 9 19 23 1 29 -23 8 l-22 -19 18 29 c18 29 18 29 -3
23 -19 -5 -20 -3 -9 10 11 14 9 16 -17 11 -28 -6 -29 -5 -10 9 19 15 19 15 -8
11 -22 -4 -25 -3 -16 9 17 19 3 29 -17 12 -15 -12 -16 -12 -10 7 4 12 0 28
-10 40 -8 10 -13 13 -9 7 4 -8 0 -13 -10 -13 -9 0 -13 5 -10 10 3 6 -1 10 -9
10 -9 0 -16 8 -17 18 0 10 -3 12 -6 5 -2 -7 -9 -13 -14 -13 -6 0 -7 5 -4 10 8
13 -22 43 -35 35 -5 -3 -10 1 -10 11 0 12 -6 15 -21 11 -14 -4 -23 1 -29 16
-8 21 -9 21 -10 2 -1 -11 -4 -14 -7 -7 -2 6 -12 12 -21 13 -11 0 -12 2 -4 6 6
2 9 9 6 14 -3 6 -12 5 -21 -3 -14 -11 -15 -10 -8 11 5 16 4 21 -4 17 -6 -4
-11 0 -11 10 0 12 -6 15 -24 12 -17 -4 -23 -1 -19 8 3 8 -2 16 -11 19 -9 3
-24 8 -33 12 -10 3 -21 5 -25 5 -5 -1 -8 3 -8 8 0 6 -7 10 -16 10 -8 0 -22 7
-31 15 -8 8 -19 13 -24 9 -5 -3 -12 1 -15 10 -3 8 -12 12 -20 9 -8 -3 -14 -1
-14 5 0 5 -16 13 -35 16 -19 4 -35 11 -35 15 0 5 -30 16 -67 26 -38 9 -84 23
-103 30 -36 14 -121 31 -200 40 -25 3 -56 8 -70 10 -14 3 -61 8 -105 11 -71 4
-82 2 -99 -16z m-78 -42 c-2 -6 -12 -12 -22 -14 -14 -2 -15 0 -5 12 14 17 32
19 27 2z m-138 -13 c-7 -8 -17 -15 -22 -15 -6 0 -5 7 2 15 7 8 17 15 22 15 6
0 5 -7 -2 -15z m280 11 c0 -3 -4 -8 -10 -11 -5 -3 -10 -1 -10 4 0 6 5 11 10
11 6 0 10 -2 10 -4z m80 -32 c0 -3 -7 -12 -15 -20 -16 -17 -18 -14 -9 10 6 15
24 23 24 10z m-656 -35 c3 -3 -4 -5 -14 -6 -11 -1 -22 2 -24 6 -5 8 30 8 38 0z
m921 -9 c3 -6 -1 -7 -9 -4 -18 7 -21 14 -7 14 6 0 13 -4 16 -10z m-1175 -95
c5 3 11 2 14 -3 2 -4 -9 -8 -25 -7 -30 0 -39 10 -16 18 6 2 14 0 15 -5 2 -4 8
-6 12 -3z m-50 -27 c0 -19 -2 -20 -10 -8 -5 8 -10 10 -10 5 0 -6 -9 -11 -19
-11 -30 0 -3 25 37 35 1 1 2 -9 2 -21z m1570 -10 c0 6 5 12 10 12 6 0 10 -7
10 -16 0 -12 -6 -15 -22 -10 -13 3 -30 6 -38 7 -10 0 -8 3 5 8 12 5 23 4 27
-3 6 -8 8 -7 8 2z m187 -23 c-4 -8 -13 -15 -22 -15 -13 0 -12 3 3 18 19 21 27
20 19 -3z m263 -169 c0 -2 -7 -7 -16 -10 -8 -3 -12 -2 -9 4 6 10 25 14 25 6z
m205 -206 c-3 -5 -12 -10 -18 -10 -7 0 -6 4 3 10 19 12 23 12 15 0z m138 -220
c-3 -12 -8 -18 -11 -15 -3 2 -11 0 -19 -6 -10 -9 -13 -8 -13 5 0 10 4 15 9 12
5 -3 14 1 21 9 17 20 19 19 13 -5z m-3118 -110 c3 -5 2 -10 -4 -10 -5 0 -13 5
-16 10 -3 6 -2 10 4 10 5 0 13 -4 16 -10z m938 -2475 c4 -8 -1 -11 -12 -8 -10
2 -18 10 -18 18 0 16 23 9 30 -10z"/>
</g>
</svg>
